<?xml version="1.0" encoding="UTF-8" standalone="no"?>
<svg
   xmlns:dc="http://purl.org/dc/elements/1.1/"
   xmlns:cc="http://creativecommons.org/ns#"
   xmlns:rdf="http://www.w3.org/1999/02/22-rdf-syntax-ns#"
   xmlns:svg="http://www.w3.org/2000/svg"
   xmlns="http://www.w3.org/2000/svg"
   xmlns:sodipodi="http://sodipodi.sourceforge.net/DTD/sodipodi-0.dtd"
   xmlns:inkscape="http://www.inkscape.org/namespaces/inkscape"
   inkscape:version="1.0 (6e3e5246a0, 2020-05-07)"
   sodipodi:docname="Eth-ter-i-die_logo_007_Small.svg"
   id="svg51"
   viewBox="0 0 52.915091 79.373799"
   version="1.1"
   height="300"
   width="200">
  <metadata
     id="metadata57">
    <rdf:RDF>
      <cc:Work
         rdf:about="">
        <dc:format>image/svg+xml</dc:format>
        <dc:type
           rdf:resource="http://purl.org/dc/dcmitype/StillImage" />
        <dc:title></dc:title>
      </cc:Work>
    </rdf:RDF>
  </metadata>
  <defs
     id="defs55" />
  <sodipodi:namedview
     fit-margin-bottom="0"
     fit-margin-right="0"
     fit-margin-left="0"
     fit-margin-top="0"
     inkscape:current-layer="svg51"
     inkscape:window-maximized="1"
     inkscape:window-y="27"
     inkscape:window-x="72"
     inkscape:cy="469.17764"
     inkscape:cx="528.96773"
     inkscape:zoom="0.34915357"
     showgrid="false"
     id="namedview53"
     inkscape:window-height="704"
     inkscape:window-width="1294"
     inkscape:pageshadow="2"
     inkscape:pageopacity="0"
     guidetolerance="10"
     gridtolerance="10"
     objecttolerance="10"
     borderopacity="1"
     bordercolor="#666666"
     pagecolor="#ffffff" />
  <g
     id="g49"
     transform="matrix(0.36645337,0,0,0.40208016,-12.314832,-2.6211807)">
    <path
       id="path47"
       style="font-variant-ligatures:normal;font-variant-position:normal;font-variant-caps:normal;font-variant-numeric:normal;font-variant-alternates:normal;font-variant-east-asian:normal;font-feature-settings:normal;font-variation-settings:normal;text-indent:0;text-decoration:none;text-decoration-line:none;text-decoration-style:solid;text-decoration-color:#000000;text-transform:none;text-orientation:mixed;white-space:normal;shape-padding:0;shape-margin:0;inline-size:0;isolation:auto;mix-blend-mode:normal"
       stop-color="#000000"
       solid-color="#000000"
       shape-rendering="auto"
       image-rendering="auto"
       dominant-baseline="auto"
       color-rendering="auto"
       color="#000000"
       d="m 63.373,183.92 c -0.63721,0.11476 -1.6324,-0.25073 -1.9624,0.48163 -0.19269,1.2039 0.0086,2.4359 -0.07232,3.6516 0.0011,2.6112 0.0023,5.2224 0.0034,7.8336 h 88.223 c -0.22899,-0.73796 0.27506,-1.7522 -0.44523,-2.2681 -0.95506,-0.27694 -2.0043,-0.0475 -2.9958,-0.12189 -27.467,0.0105 -54.934,0.0125 -82.401,0.009 v -9.6348 c -0.11654,0.0163 -0.23307,0.0326 -0.34961,0.0488 z m -2.0293,-0.20312 c 0.06247,0.74119 -0.31692,1.7499 0.40039,2.2559 1.4825,0.31953 3.0092,0.003 4.5109,0.12109 h 80.86 v 9.627 c 0.73796,-0.22899 1.7522,0.27506 2.2681,-0.44523 0.27947,-0.95478 0.0432,-2.0044 0.11765,-2.9958 -0.009,-2.8556 -0.006,-5.7112 -0.005,-8.5668 -29.383,0.003 -58.776,-0.005 -88.152,0.004 z m 43.496,-93.211 c -19.58,5.3714 -39.153,10.78 -58.732,16.156 0.50708,0.70465 0.28196,1.7167 0.87109,2.3516 0.69994,0.53858 1.5539,-0.14043 2.3006,-0.23317 19.265,-5.331 38.547,-10.609 57.819,-15.919 -0.60008,-0.76344 -0.22632,-2.0356 -1.1582,-2.5449 -0.36341,-0.08514 -0.73776,0.14484 -1.0996,0.18945 z m 0.20899,-0.11133 c -0.12533,0.81457 -0.89132,1.7006 -0.36719,2.4961 0.99623,0.80597 2.3838,0.65642 3.5351,1.1122 18.914,4.7523 37.828,9.5046 56.742,14.257 -0.11949,-0.81419 0.54891,-1.5065 0.39454,-2.2988 -0.2943,-0.8166 -1.366,-0.64715 -2.035,-0.93341 -19.424,-4.8697 -38.852,-9.7536 -58.27,-14.633 z m 1.8281,-81.828 c -0.70134,0.29347 -1.7928,-0.24259 -2.1952,0.57647 -0.2037,0.94538 0.0129,1.9305 -0.0741,2.8931 0.0142,43.702 0.0285,87.404 0.0427,131.11 0.62091,-0.27651 1.315,-0.0564 1.9375,-0.21289 0.81293,-0.56449 0.32943,-1.6506 0.45261,-2.4594 -0.0245,-43.982 -0.0345,-87.963 -0.0444,-131.94 l -0.0945,0.032551 z m -60.602,108.85 c -0.52174,0.49611 -1.5329,1.2705 -0.85722,2.0394 3.8988,5.6504 7.9305,11.206 11.879,16.823 9.357,13.2 18.715,26.4 28.072,39.601 h -23.719 c -9.349,9.349 -18.698,18.698 -28.047,28.047 h 144.4 l -28.049,-28.047 h -23.717 c 13.476,-19.014 26.955,-38.027 40.432,-57.041 -0.50692,-0.45917 -0.98088,-1.4019 -1.7848,-1.1664 -1.9878,1.0736 -3.8645,2.3397 -5.8386,3.4407 -17.75,10.474 -35.501,20.946 -53.25,31.421 -19.838,-11.711 -39.677,-23.419 -59.516,-35.129 z m 6.4648,6.5625 c 17.586,10.369 35.155,20.771 52.752,31.119 0.99825,0.1634 1.7261,-0.79234 2.5776,-1.1544 16.969,-9.9939 33.924,-20.014 50.893,-30.008 0.40049,-0.12094 1.481,-0.86769 1.4196,-0.56355 -1.4911,2.5617 -3.3648,4.8755 -5.03,7.3243 -11.239,15.855 -22.477,31.709 -33.716,47.564 h 27.334 c 7.7634,7.7601 15.525,15.522 23.285,23.285 h -132.9 c 7.7601,-7.7633 15.522,-15.525 23.285,-23.285 h 27.336 c -12.66,-17.87 -25.338,-35.728 -37.986,-53.606 -0.15368,-0.38901 -0.98752,-1.4039 -0.67925,-1.3678 l 1.4313,0.69222 z m -8.1484,-15.74 c 20.398,11.982 40.797,23.964 61.195,35.945 20.41,-11.982 40.82,-23.964 61.23,-35.945 -20.404,-33.906 -40.809,-67.811 -61.213,-101.72 -20.404,33.906 -40.809,67.811 -61.213,101.72 z m 61.666,-96.346 c 19.158,31.837 38.318,63.672 57.475,95.51 -19.314,11.342 -38.63,22.682 -57.945,34.021 -19.306,-11.339 -38.611,-22.68 -57.916,-34.021 19.31,-32.088 38.622,-64.175 57.934,-96.262 0.15104,0.25065 0.30208,0.5013 0.45312,0.75195 z" />
  </g>
</svg>
